<?xml version="1.0"?>
<svg xmlns="http://www.w3.org/2000/svg" version="1.1" id="Layer_1" x="0px" y="0px" viewBox="0 0 512 512"
     style="enable-background:new 0 0 512 512;" xml:space="preserve" width="512px" height="512px"><g><g>
	<g>
		<path d="M393.548,133.485h-6.353V74.346V7.604c0-4.199-3.404-7.604-7.604-7.604h-69.344c-3.607,0-6.717,2.534-7.447,6.065    l-12.537,60.678H179.295c-16.304,0-30.862,9.736-37.088,24.803l-17.334,41.939h-6.421c-4.2,0-7.604,3.405-7.604,7.604v56.15    c0,4.199,3.404,7.604,7.604,7.604h21.104l6.187,68.891c0,0.001,0,0.001,0,0.001l2.915,32.465c0,0.003,0,0.006,0.001,0.01    l17.859,198.867c0.352,3.921,3.638,6.924,7.574,6.924h168.261c3.936,0,7.222-3.003,7.574-6.924l21.915-244.026    c0,0,0-0.001,0-0.002l5.048-56.206h16.659c4.2,0,7.604-3.405,7.604-7.604v-56.149C401.152,136.89,397.749,133.485,393.548,133.485    z M316.441,15.208h55.547v51.535h-66.196L316.441,15.208z M156.262,97.354c3.866-9.357,12.906-15.404,23.033-15.404h117.162    h75.532v51.535h-230.66L156.262,97.354z M335.403,496.792H181.045l-16.823-187.336c10.847-3.91,47.567-11.839,84.971-0.826    c13.734,4.043,28.105,5.537,41.847,5.536c25.301,0,48.446-5.061,61.535-8.598L335.403,496.792z M354.034,289.326    c-14.647,4.338-61.409,16.238-100.547,4.715c-36.548-10.759-72.745-5.574-90.654-0.047l-1.536-17.105    c11.16-4.342,50.452-13.905,87.896-2.881c13.734,4.043,28.314,5.536,42.37,5.535c26.233-0.001,50.607-5.2,64.134-8.729    L354.034,289.326z M357.15,254.628c-15.249,4.312-64.441,16.338-103.663,4.791c-35.642-10.493-74.527-4.505-93.595,1.838    l-5.066-56.414h206.794L357.15,254.628z M385.945,189.635L385.945,189.635h-16.007h-223.43h-20.453v-40.942h3.902h249.634h6.353    V189.635z"
              data-original="#000000" class="active-path" data-old_color="#ff0e3b" fill="#ff0e3b"/>
	</g>
</g></g> </svg>
