<?xml version="1.0"?>
<svg xmlns="http://www.w3.org/2000/svg" version="1.1" id="Layer_1" x="0px" y="0px" viewBox="0 0 512 512"
     style="enable-background:new 0 0 512 512;" xml:space="preserve" width="512px" height="512px" class=""><g><g>
	<g>
		<path d="M504.396,181.31c-60.018,0-104.368,38.809-116.491,50.638c-48.276-11.705-78.346,7.199-95.212,25.461    c-8.824,9.554-14.916,19.801-18.905,28.012c-2.417-3.758-5.416-7.89-9.048-12.021c-15.922-18.111-36.483-27.683-59.461-27.683    c-19.439,0-34.921,6.011-46.858,13.867l36.531-83.644l3.674,7.229c1.297,2.552,3.917,4.159,6.779,4.159h54.409h21.17h87.626    c4.199,0,7.604-3.405,7.604-7.604v-49.834c0-1.172-0.273-2.277-0.746-3.269l3.147-3.549c1.751-1.975,2.353-4.717,1.589-7.245    l-25.306-83.748c-0.969-3.209-3.927-5.405-7.279-5.405h-33.744H273.69h-17.157h-33.744h-40.186c-1.822,0-3.583,0.654-4.964,1.843    l-48.998,42.215c-0.759,0.655-1.382,1.452-1.831,2.347L0.809,323.895C0.277,324.953,0,326.123,0,327.308v62.444    c0,2.24,0.987,4.367,2.7,5.81c2.745,2.317,68.201,56.728,154.144,56.728c72.853,0,132.633-23.857,149.947-31.517l62.326,62.325    c1.425,1.427,3.36,2.227,5.376,2.227h129.902c4.199,0,7.604-3.405,7.604-7.604V188.914C512,184.715,508.595,181.31,504.396,181.31    z M361.009,172.119L361.009,172.119h-80.023h-13.566v-14.28h3.018h27.085h13.101h33.744c2.176,0,4.246-0.932,5.69-2.559    l10.951-12.35V172.119z M341.974,41.883l22.445,74.278l-23.472,26.471h-13.418l17.343-19.559c1.751-1.975,2.353-4.717,1.589-7.245    l-22.343-73.944H341.974z M308.23,41.883l22.445,74.278l-23.472,26.471h-9.68h-10.18l17.343-19.559    c1.752-1.975,2.353-4.717,1.59-7.245l-22.344-73.944H308.23z M377.642,470.118l-63.843-63.843    c-2.297-2.296-5.802-2.879-8.719-1.454c-0.66,0.322-66.961,32.261-148.238,32.261c-70.907,0-128.709-41.08-141.635-51.006v-56.967    L139.718,81.263l45.708-39.38h37.363h33.744h11.511l22.444,74.278l-23.472,26.471h-3.238h-32.582v-7.688    c0-7.647,6.22-13.867,13.867-13.867h12.362c2.527,0,4.888-1.255,6.302-3.349c1.414-2.094,1.695-4.753,0.751-7.097l-10.41-25.842    c-0.036-0.09-0.082-0.174-0.122-0.263c-0.011-0.024-0.022-0.049-0.033-0.072c-0.961-2.09-2.764-3.549-4.841-4.135    c-0.004-0.001-0.008-0.002-0.011-0.003c-0.223-0.063-0.449-0.116-0.678-0.158c-0.043-0.008-0.086-0.014-0.129-0.021    c-0.193-0.032-0.387-0.058-0.583-0.075c-0.075-0.007-0.15-0.01-0.226-0.015c-0.165-0.01-0.33-0.015-0.496-0.014    c-0.046,0-0.089-0.005-0.135-0.004c-1.685,0.044-27.537,0.022-44.504-0.002c-0.004,0-0.007,0-0.011,0    c-4.194,0-7.598,3.397-7.604,7.593c-0.006,4.199,3.393,7.609,7.593,7.615c2.78,0.004,19.39,0.027,31.636,0.027    c3.009,0,5.754-0.001,7.965-0.005l4.274,10.612h-1.101c-16.032,0-29.074,13.042-29.074,29.075v15.292    c0,4.199,3.405,7.604,7.604,7.604h28.619v14.28h-42.14l-8.86-17.43c-1.333-2.623-4.081-4.246-7.001-4.155    c-2.941,0.085-5.568,1.86-6.746,4.557l-61.49,140.791c-1.663,3.806,0.036,8.242,3.816,9.963c3.778,1.721,8.241,0.092,10.022-3.659    c0.196-0.413,20.106-41.261,65.468-41.261c44.66,0,61.662,43.43,62.358,45.262c1.156,3.088,4.168,5.088,7.463,4.931    c3.294-0.148,6.117-2.402,6.991-5.581c0.056-0.203,5.752-20.459,21.776-37.809c21.094-22.841,49.479-29.565,84.37-19.987    c2.746,0.754,5.681-0.089,7.608-2.184c0.433-0.47,42.212-45.148,100.948-48.801v273.361H377.642z"
              data-original="#000000" class="active-path" data-old_color="#ff0e3b" fill="#ff0e3b"/>
	</g>
</g></g> </svg>
