<?xml version="1.0"?>
<svg xmlns="http://www.w3.org/2000/svg" version="1.1" id="Layer_1" x="0px" y="0px" viewBox="0 0 512 512"
     style="enable-background:new 0 0 512 512;" xml:space="preserve" width="512px" height="512px" class=""><g><g>
	<g>
		<path d="M431.768,136.918l-28.237-48.509l28.237-48.51c1.372-2.356,1.379-5.266,0.021-7.629c-1.358-2.363-3.876-3.821-6.603-3.821    h-66.719h-92.564h-25.487V7.617c0-4.208-3.409-7.617-7.617-7.617h-26.954c-4.208,0-7.617,3.409-7.617,7.617v407.366    l-77.421,55.564c-0.057,0.041-0.114,0.081-0.174,0.124c-0.003,0.002-0.005,0.004-0.008,0.006L82.373,498.13    c-2.687,1.928-3.823,5.37-2.81,8.52c1.013,3.149,3.941,5.284,7.249,5.285L351.83,512c0.001,0,0.001,0,0.002,0    c3.307,0,6.237-2.135,7.25-5.281c1.015-3.148-0.119-6.591-2.806-8.522l-115.859-83.248V148.367h184.769    c2.727,0,5.244-1.457,6.603-3.821S433.14,139.275,431.768,136.918z M213.463,15.234h11.721v412.287h-11.721V15.234z     M328.17,496.76l-217.688-0.053l17.255-12.383c15.14-0.423,115.015-0.16,183.322,0.141L328.17,496.76z M289.737,469.146    c-18.051-0.069-44.084-0.16-69.979-0.218c-27.279-0.062-49.068-0.072-64.761-0.04c-2.053,0.004-3.972,0.009-5.77,0.013    l49.001-35.168v1.405c0,4.208,3.409,7.617,7.617,7.617h26.954c4.208,0,7.617-3.409,7.617-7.617v-1.43L289.737,469.146z     M258.287,133.134h-17.241V43.685h17.241V133.134z M350.85,130.158h-77.33V43.685h77.33V130.158z M366.083,133.134V43.685h45.855    l-23.802,40.892c-1.379,2.369-1.379,5.295,0,7.664l23.803,40.893H366.083z"
              data-original="#000000" class="active-path" data-old_color="#ff0e3b" fill="#ff0e3b"/>
	</g>
</g><g>
	<g>
		<path d="M323.212,101.727h-2.264v-42.47c0-2.978-1.735-5.682-4.441-6.923c-2.708-1.24-5.887-0.791-8.145,1.152l-13.169,11.336    c-3.189,2.744-3.548,7.554-0.803,10.741c2.745,3.188,7.555,3.548,10.743,0.802l0.583-0.501v25.864h-3.264    c-4.208,0-7.617,3.409-7.617,7.617c0,4.207,3.409,7.617,7.617,7.617h20.76c4.207,0,7.617-3.409,7.617-7.617    C330.829,105.136,327.42,101.727,323.212,101.727z"
              data-original="#000000" class="active-path" data-old_color="#ff0e3b" fill="#ff0e3b"/>
	</g>
</g></g> </svg>
