<?xml version="1.0"?>
<svg xmlns="http://www.w3.org/2000/svg" version="1.1" id="Layer_1" x="0px" y="0px" viewBox="0 0 512 512"
     style="enable-background:new 0 0 512 512;" xml:space="preserve" width="512px" height="512px" class=""><g><g>
	<g>
		<path d="M491.216,273.154h-99.413c-11.461,0-20.784,9.323-20.784,20.784v3.797c-0.089,0.465-0.14,0.944-0.14,1.436v22.273h-87.958    v-22.273c0-0.297-0.021-0.589-0.055-0.877v-4.355c0-11.461-9.323-20.784-20.784-20.784h-99.413    c-11.461,0-20.784,9.323-20.784,20.784v145.996c0,11.461,9.323,20.784,20.784,20.784h99.414c11.461,0,20.784-9.323,20.784-20.784    v-23.921c0.033-0.288,0.055-0.58,0.055-0.877v-2.707h87.958v2.707c0,0.491,0.051,0.97,0.14,1.436v23.363    c0,11.461,9.323,20.784,20.784,20.784h99.412c11.461,0,20.784-9.323,20.784-20.784V293.94    C512,282.478,502.677,273.154,491.216,273.154z M182.086,445.51H162.67c-3.075,0-5.576-2.501-5.576-5.576V293.938    c0-3.075,2.501-5.576,5.576-5.576h19.417V445.51z M267.714,403.947c-0.033,0.288-0.055,0.58-0.055,0.877v35.11    c0,3.075-2.502,5.576-5.576,5.576h-64.788V288.362h64.788c3.074,0,5.576,2.501,5.576,5.576v35.11c0,0.297,0.021,0.589,0.055,0.877    V403.947z M370.88,397.22h-87.958v-60.568h87.958V397.22z M456.589,445.509h-64.787c-3.075,0.001-5.576-2.5-5.576-5.575v-35.11    c0-0.491-0.051-0.97-0.14-1.436v-72.906c0.089-0.465,0.14-0.944,0.14-1.436v-35.11c0-3.075,2.501-5.576,5.576-5.576h64.787    V445.509z M496.792,439.934c0,3.075-2.502,5.576-5.576,5.576h-19.417V288.362h19.417c3.074,0,5.576,2.501,5.576,5.576V439.934z"
              data-original="#000000" class="active-path" data-old_color="#ff0e3b" fill="#ff0e3b"/>
	</g>
</g><g>
	<g>
		<path d="M349.33,51.28h-99.413c-11.461,0-20.784,9.323-20.784,20.784v12.508c-0.123,0.543-0.194,1.106-0.194,1.686V99.57h-87.958    V86.258V72.064c0-11.461-9.323-20.784-20.784-20.784H20.784C9.323,51.281,0,60.604,0,72.065v145.996    c0,11.461,9.323,20.784,20.784,20.784h99.413c11.461,0,20.784-9.323,20.784-20.784v-15.837v-11.67h87.958v11.67    c0,0.581,0.071,1.144,0.194,1.686v14.149c0,11.461,9.323,20.784,20.784,20.784h99.413c11.461,0,20.784-9.323,20.784-20.784V72.064    C370.114,60.603,360.791,51.28,349.33,51.28z M38.276,223.637H20.784c-3.074,0-5.576-2.501-5.576-5.576V72.065    c0-3.075,2.502-5.576,5.576-5.576h17.492V223.637z M125.774,86.259v20.916v75.776v19.273v15.837c0,3.075-2.501,5.576-5.576,5.576    H53.484V66.488h66.713c3.075,0,5.576,2.501,5.576,5.576V86.259z M228.939,175.347h-87.958v-60.568h87.958V175.347z     M312.779,223.637h-62.862c-3.074,0-5.576-2.501-5.576-5.576v-35.11c0-0.581-0.071-1.144-0.194-1.686v-72.403    c0.123-0.543,0.194-1.106,0.194-1.686V72.065c0-3.075,2.502-5.576,5.576-5.576h62.862V223.637z M354.906,218.061    c0,3.075-2.501,5.576-5.576,5.576h-21.343V66.488h21.343c3.075,0,5.576,2.501,5.576,5.576V218.061z"
              data-original="#000000" class="active-path" data-old_color="#ff0e3b" fill="#ff0e3b"/>
	</g>
</g></g> </svg>
